<svg xmlns="http://www.w3.org/2000/svg" width="290" height="50.526" viewBox="0 0 290 50.526">
  <g id="Group_386" data-name="Group 386" transform="translate(-185.873 -256.749)">
    <path id="Path_38" data-name="Path 38" d="M494.841,296.037l-.863.59a7.974,7.974,0,0,1-4.133,1.262,3.421,3.421,0,0,1-2.652-1.022,4.426,4.426,0,0,1-.973-3.113V282.37h8.486v-5.51h-8.486V269h-6.429v7.86H469.031V303.3h6.429V282.37h4.333v11.739c0,3.205.881,5.686,2.62,7.37a9.782,9.782,0,0,0,7.077,2.531,14.554,14.554,0,0,0,6.874-2.1l.684-.379A11.1,11.1,0,0,1,494.841,296.037Z" transform="translate(-108.566 -4.697)" fill="#fff"/>
    <path id="Path_39" data-name="Path 39" d="M189.646,303.387c-2.084,0-3.773,5.114-3.773,13.086h7.545c0-7.972-1.689-13.086-3.772-13.086" transform="translate(0 -17.882)" fill="#17ac9d"/>
    <path id="Path_40" data-name="Path 40" d="M235.314,256.749c-5.277,0-9.516,17.763-9.516,41.843h19.03c0-24.08-4.282-41.843-9.514-41.843" transform="translate(-15.308)" fill="#17ac9d"/>
    <path id="Path_41" data-name="Path 41" d="M208.228,280.685c-3.323,0-5.993,11.155-5.993,27.084H214.22c0-15.928-2.7-27.084-5.992-27.084" transform="translate(-6.273 -9.177)" fill="#17ac9d"/>
    <path id="Path_42" data-name="Path 42" d="M298.156,283.47a12.988,12.988,0,0,0-8.625-2.891,12.577,12.577,0,0,0-9.228,3.944,14.844,14.844,0,0,0-.026,20,12.594,12.594,0,0,0,9.254,3.919,12.986,12.986,0,0,0,8.625-2.892v2.177h6.43V281.293h-6.43Zm-2.329,5.191a8.511,8.511,0,0,1,0,11.7,7.5,7.5,0,0,1-5.428,2.265,7.383,7.383,0,0,1-5.523-2.206,9.08,9.08,0,0,1,0-11.818A7.381,7.381,0,0,1,290.4,286.4a7.5,7.5,0,0,1,5.428,2.265" transform="translate(-34.714 -9.137)" fill="#fff"/>
    <path id="Path_43" data-name="Path 43" d="M360.7,280.588a11.509,11.509,0,0,0-9.392,4.218,9.237,9.237,0,0,0-3.224-2.923,11.626,11.626,0,0,0-12.8,1.421v-2h-6.429v26.436h6.429V294.623c0-2.643.567-4.67,1.685-6.024a5.469,5.469,0,0,1,4.492-1.991,4.891,4.891,0,0,1,3.706,1.49,5.485,5.485,0,0,1,1.451,4.024v15.616h6.429V294.623c0-2.642.573-4.668,1.706-6.021a5.6,5.6,0,0,1,4.573-1.994,4.889,4.889,0,0,1,3.706,1.49,5.487,5.487,0,0,1,1.45,4.024v15.616h6.378V291.05a10.2,10.2,0,0,0-2.948-7.543,9.892,9.892,0,0,0-7.209-2.919" transform="translate(-54.819 -9.14)" fill="#fff"/>
    <path id="Path_44" data-name="Path 44" d="M417,280.588a13,13,0,0,0-8.627,2.892V281.3h-6.429v35.112h6.429V305.562A13,13,0,0,0,417,308.454a12.6,12.6,0,0,0,9.254-3.919,14.845,14.845,0,0,0-.025-20,12.581,12.581,0,0,0-9.23-3.944m6.841,13.933a8.066,8.066,0,0,1-2.186,5.908,7.379,7.379,0,0,1-5.523,2.207,7.5,7.5,0,0,1-5.429-2.265,8.508,8.508,0,0,1,0-11.7,7.5,7.5,0,0,1,5.429-2.265,7.381,7.381,0,0,1,5.523,2.207,8.067,8.067,0,0,1,2.186,5.909" transform="translate(-82.845 -9.14)" fill="#fff"/>
    <rect id="Rectangle_22" data-name="Rectangle 22" width="6.428" height="37.358" transform="translate(349.412 261.24)" fill="#fff"/>
    <path id="Path_45" data-name="Path 45" d="M534.227,294c0,2.947-.627,5.2-1.861,6.685a6.187,6.187,0,0,1-5.081,2.2,4.975,4.975,0,0,1-3.992-1.721,6.9,6.9,0,0,1-1.521-4.66V281.747h-6.43v15.822a11.547,11.547,0,0,0,2.932,8.165,10.182,10.182,0,0,0,7.785,3.164,11.558,11.558,0,0,0,8.167-2.985v2.27h6.429V281.747h-6.429Z" transform="translate(-126.323 -9.585)" fill="#fff"/>
    <path id="Path_46" data-name="Path 46" d="M582.818,277.142a13.048,13.048,0,0,0-8.627-2.9,12.579,12.579,0,0,0-9.229,3.944,14.776,14.776,0,0,0,0,19.976,12.581,12.581,0,0,0,9.23,3.944,13.234,13.234,0,0,0,8.627-2.871v2.156H589.3V264.033h-6.479Zm-2.331,5.181a8.54,8.54,0,0,1,0,11.724,7.54,7.54,0,0,1-5.431,2.242,7.319,7.319,0,0,1-5.471-2.206,9.047,9.047,0,0,1,0-11.8,7.282,7.282,0,0,1,5.469-2.229,7.5,7.5,0,0,1,5.428,2.265" transform="translate(-143.857 -2.793)" fill="#fff"/>
    <path id="Path_47" data-name="Path 47" d="M634.541,284.691a14.054,14.054,0,0,0-10.006-3.854,14.239,14.239,0,0,0-10.055,3.851,14.019,14.019,0,0,0,0,19.879,14.177,14.177,0,0,0,10.055,3.88,14.029,14.029,0,0,0,9.981-3.881,14.111,14.111,0,0,0,.025-19.876m-2.2,9.926a7.726,7.726,0,0,1-2.33,5.85,7.853,7.853,0,0,1-11.033,0,8.576,8.576,0,0,1,0-11.7,7.853,7.853,0,0,1,11.033,0,7.727,7.727,0,0,1,2.33,5.85" transform="translate(-162.748 -9.236)" fill="#fff"/>
    <path id="Path_48" data-name="Path 48" d="M471.77,271.739a3.89,3.89,0,0,0,2.815-1.077,3.691,3.691,0,0,0,1.113-2.75,3.757,3.757,0,0,0-1.134-2.744,3.811,3.811,0,0,0-2.794-1.135,3.872,3.872,0,0,0-2.846,1.135,3.755,3.755,0,0,0-1.135,2.744,3.643,3.643,0,0,0,1.146,2.754,3.975,3.975,0,0,0,2.835,1.073" transform="translate(-108.09 -2.793)" fill="#fff"/>
  </g>
</svg>
